<svg xmlns="http://www.w3.org/2000/svg" xmlns:xlink="http://www.w3.org/1999/xlink" width="1080" zoomAndPan="magnify" viewBox="0 0 810 809.999993" height="1080" preserveAspectRatio="xMidYMid meet" version="1.0"><defs><g/><clipPath id="6419b095bc"><path d="M 88.390625 269.394531 L 180.339844 269.394531 L 180.339844 538 L 88.390625 538 Z M 88.390625 269.394531 " clip-rule="nonzero"/></clipPath></defs><path fill="#ffffff" d="M 139.007812 275.84375 C 144.199219 278.363281 149.484375 280.605469 154.617188 283.242188 C 157.136719 284.539062 159.570312 285.859375 161.535156 287.960938 C 163.683594 290.253906 164.46875 293.097656 166.230469 295.59375 C 166.839844 296.453125 168.25 296.183594 168.273438 295.035156 C 168.371094 289.628906 163.195312 284.769531 158.875 282.234375 C 153.105469 278.855469 146 275.460938 139.34375 274.589844 C 138.6875 274.511719 138.433594 275.566406 139.007812 275.84375 Z M 139.007812 275.84375 " fill-opacity="1" fill-rule="nonzero"/><path fill="#ffffff" d="M 159.164062 288.542969 C 157.28125 287.234375 154.640625 285.742188 152.277344 285.917969 C 151.9375 285.929688 151.699219 286.089844 151.566406 286.40625 C 151.433594 286.71875 151.484375 287.003906 151.71875 287.253906 C 153.019531 288.789062 155.179688 289.492188 156.878906 290.503906 C 158.667969 291.59375 160.238281 292.933594 161.59375 294.53125 C 162.226562 295.28125 163.675781 294.484375 163.292969 293.542969 C 162.421875 291.371094 161.082031 289.878906 159.164062 288.542969 Z M 159.164062 288.542969 " fill-opacity="1" fill-rule="nonzero"/><path fill="#ffffff" d="M 151.582031 290.75 C 151.449219 290.828125 151.367188 290.9375 151.328125 291.085938 C 151.289062 291.234375 151.304688 291.371094 151.382812 291.503906 C 151.878906 292.328125 152.890625 292.71875 153.738281 293.089844 C 154.761719 293.535156 155.792969 293.984375 156.785156 294.488281 C 157.554688 294.890625 158.410156 293.890625 157.742188 293.246094 C 156.34375 291.929688 153.652344 289.722656 151.582031 290.75 Z M 151.582031 290.75 " fill-opacity="1" fill-rule="nonzero"/><path fill="#ffffff" d="M 146.984375 303.164062 C 146.96875 303.164062 146.960938 303.171875 146.960938 303.183594 C 146.960938 303.199219 146.96875 303.207031 146.984375 303.207031 C 147 303.207031 147.007812 303.199219 147.007812 303.183594 C 147.007812 303.171875 147 303.164062 146.984375 303.164062 Z M 146.984375 303.164062 " fill-opacity="1" fill-rule="nonzero"/><path fill="#ffffff" d="M 149.667969 308.917969 C 154.039062 309.820312 158.585938 310.148438 163.027344 310.539062 C 167.347656 310.921875 174.335938 309.980469 176.351562 314.53125 C 176.566406 315.011719 177.339844 314.96875 177.566406 314.53125 C 181.789062 306.46875 153.125 307.945312 149.773438 308.167969 C 149.367188 308.195312 149.222656 308.824219 149.667969 308.917969 Z M 149.667969 308.917969 " fill-opacity="1" fill-rule="nonzero"/><path fill="#ffffff" d="M 174.347656 313.953125 C 169.921875 310.699219 161.882812 311.191406 156.710938 311.679688 C 156.34375 311.714844 156.1875 312.308594 156.617188 312.378906 C 159.335938 312.847656 162.085938 312.871094 164.832031 313.066406 C 168.082031 313.296875 170.832031 314.070312 173.886719 315.054688 C 174.578125 315.277344 174.863281 314.324219 174.347656 313.953125 Z M 174.347656 313.953125 " fill-opacity="1" fill-rule="nonzero"/><path fill="#ffffff" d="M 150.445312 317.753906 C 153.464844 318.394531 172.222656 317.644531 171.996094 321.734375 C 171.957031 322.484375 172.871094 322.703125 173.359375 322.292969 L 173.917969 321.832031 C 174.222656 321.527344 174.316406 321.171875 174.199219 320.757812 C 173.375 317.679688 169.289062 317.578125 166.671875 317.246094 C 161.527344 316.585938 155.53125 315.609375 150.433594 316.816406 C 150.199219 316.882812 150.082031 317.039062 150.085938 317.285156 C 150.085938 317.53125 150.207031 317.6875 150.445312 317.753906 Z M 150.445312 317.753906 " fill-opacity="1" fill-rule="nonzero"/><path fill="#ffffff" d="M 163.621094 319.589844 C 160.789062 319.386719 157.949219 319.359375 155.113281 319.511719 C 155.015625 319.511719 154.929688 319.546875 154.855469 319.613281 C 154.78125 319.675781 154.738281 319.757812 154.722656 319.855469 C 154.710938 319.953125 154.730469 320.042969 154.785156 320.128906 C 154.839844 320.210938 154.910156 320.265625 155.007812 320.292969 C 157.3125 321.042969 159.621094 321.03125 162.023438 321.085938 C 164.644531 321.148438 167.253906 321.871094 169.828125 321.789062 C 170.015625 321.78125 170.132812 321.691406 170.179688 321.511719 C 170.230469 321.332031 170.175781 321.191406 170.019531 321.09375 C 168.273438 319.773438 165.753906 319.738281 163.621094 319.589844 Z M 163.621094 319.589844 " fill-opacity="1" fill-rule="nonzero"/><path fill="#ffffff" d="M 148.871094 324.53125 C 151.9375 325.570312 155.203125 325.714844 158.414062 325.953125 C 160.636719 326.113281 170.796875 325.390625 170.023438 329.25 C 169.882812 329.941406 170.796875 330.371094 171.1875 329.742188 C 175.519531 322.574219 151.738281 323.511719 148.871094 323.957031 C 148.570312 324.007812 148.621094 324.449219 148.871094 324.53125 Z M 148.871094 324.53125 " fill-opacity="1" fill-rule="nonzero"/><path fill="#ffffff" d="M 168.121094 328.65625 C 165.484375 327.5625 162.332031 327.75 159.503906 327.589844 C 156.628906 327.433594 153.835938 327.1875 150.976562 327.628906 C 150.75 327.667969 150.789062 327.996094 150.976562 328.054688 C 153.777344 328.96875 156.597656 329.148438 159.503906 329.457031 C 162.304688 329.734375 165.347656 330.410156 168.121094 329.734375 C 168.726562 329.597656 168.589844 328.851562 168.121094 328.65625 Z M 168.121094 328.65625 " fill-opacity="1" fill-rule="nonzero"/><path fill="#ffffff" d="M 129.441406 295.734375 C 133.445312 296.03125 137.515625 295.429688 141.535156 295.453125 C 145.558594 295.476562 149.589844 296.113281 153.632812 296.140625 C 154.246094 296.140625 154.414062 295.164062 153.78125 295.039062 C 149.757812 294.253906 145.617188 294.414062 141.535156 294.441406 C 137.515625 294.472656 133.296875 294.386719 129.410156 295.507812 C 129.355469 295.535156 129.332031 295.574219 129.339844 295.632812 C 129.347656 295.691406 129.382812 295.726562 129.441406 295.734375 Z M 129.441406 295.734375 " fill-opacity="1" fill-rule="nonzero"/><path fill="#ffffff" d="M 124.410156 327.621094 C 116.699219 327.640625 109.03125 328.296875 101.5 330.003906 C 101.078125 330.101562 101.160156 330.816406 101.601562 330.773438 C 109.214844 329.980469 116.804688 328.960938 124.410156 328.144531 C 124.742188 328.109375 124.757812 327.617188 124.410156 327.621094 Z M 124.410156 327.621094 " fill-opacity="1" fill-rule="nonzero"/><path fill="#ffffff" d="M 131.214844 328.351562 C 137.03125 327.847656 142.820312 328.351562 148.617188 328.09375 C 149.140625 328.066406 149.324219 327.210938 148.746094 327.125 C 143.027344 326.265625 136.921875 327.027344 131.214844 327.683594 C 130.792969 327.722656 130.777344 328.390625 131.214844 328.351562 Z M 131.214844 328.351562 " fill-opacity="1" fill-rule="nonzero"/><path fill="#ffffff" d="M 139.214844 324.933594 C 141.066406 325.113281 143.523438 325.679688 145.3125 325.003906 C 145.402344 324.976562 145.445312 324.917969 145.445312 324.824219 C 145.445312 324.734375 145.402344 324.675781 145.3125 324.648438 C 143.519531 323.972656 141.066406 324.539062 139.214844 324.71875 C 139.140625 324.71875 139.105469 324.753906 139.105469 324.824219 C 139.105469 324.898438 139.140625 324.933594 139.214844 324.933594 Z M 139.214844 324.933594 " fill-opacity="1" fill-rule="nonzero"/><path fill="#ffffff" d="M 139.585938 316.964844 C 142.453125 317.101562 145.484375 317.886719 148.316406 317.070312 C 148.394531 317.070312 148.460938 317.042969 148.515625 316.988281 C 148.570312 316.933594 148.597656 316.871094 148.597656 316.792969 C 148.597656 316.714844 148.570312 316.648438 148.515625 316.59375 C 148.460938 316.539062 148.394531 316.511719 148.316406 316.511719 C 145.484375 315.671875 142.457031 316.460938 139.585938 316.585938 C 139.460938 316.585938 139.398438 316.648438 139.398438 316.777344 C 139.398438 316.902344 139.460938 316.964844 139.585938 316.964844 Z M 139.585938 316.964844 " fill-opacity="1" fill-rule="nonzero"/><path fill="#ffffff" d="M 138.652344 308.34375 C 141.523438 308.519531 144.789062 309.496094 147.660156 309.082031 C 147.804688 309.042969 147.925781 308.960938 148.019531 308.835938 C 148.113281 308.714844 148.160156 308.578125 148.160156 308.425781 C 148.160156 308.371094 148.160156 308.3125 148.160156 308.261719 C 148.15625 308.015625 148.039062 307.859375 147.804688 307.792969 C 144.882812 307.257812 141.597656 307.90625 138.648438 307.835938 C 138.324219 307.828125 138.328125 308.324219 138.652344 308.34375 Z M 138.652344 308.34375 " fill-opacity="1" fill-rule="nonzero"/><g clip-path="url(#6419b095bc)"><path fill="#ffffff" d="M 178.164062 487.726562 C 177.902344 485.796875 178.792969 483.742188 177.113281 482.191406 C 176.460938 481.589844 175.453125 481.285156 174.429688 481.226562 C 174.386719 479.601562 174.429688 477.222656 173.890625 475.394531 C 173.722656 474.734375 173.421875 474.136719 172.996094 473.605469 C 172.566406 473.132812 172.046875 472.808594 171.433594 472.640625 C 170.675781 472.433594 169.90625 472.367188 169.121094 472.4375 C 169.371094 458.265625 169.464844 444.085938 169.480469 429.890625 C 169.515625 398.371094 169.152344 366.832031 169.140625 335.332031 C 170.660156 335.46875 172.121094 335.304688 173.125 334.285156 C 173.582031 333.789062 173.902344 333.222656 174.089844 332.578125 C 174.707031 330.730469 174.652344 328.261719 174.710938 326.550781 C 175.730469 326.492188 176.738281 326.1875 177.390625 325.585938 C 179.070312 324.042969 178.1875 321.992188 178.441406 320.066406 C 181.140625 318.765625 181.828125 315.566406 181.6875 312.371094 C 181.519531 308.507812 179.554688 306.90625 176.539062 305.835938 C 175.917969 295.613281 169.707031 286.636719 162.894531 279.347656 C 156.082031 272.058594 145.5625 269.382812 135.824219 269.847656 C 124.980469 270.375 114.980469 275.566406 106.539062 282.160156 C 104.664062 283.609375 102.953125 285.234375 101.40625 287.03125 C 99.863281 288.828125 98.511719 290.765625 97.359375 292.835938 C 96.207031 294.90625 95.277344 297.074219 94.5625 299.332031 C 93.847656 301.59375 93.371094 303.902344 93.125 306.261719 C 90.875 307.21875 89.273438 308.660156 88.898438 311.648438 C 88.472656 315.007812 89.195312 318.710938 92.105469 320.140625 C 92.367188 322.074219 91.476562 324.128906 93.15625 325.675781 C 93.808594 326.277344 94.816406 326.582031 95.839844 326.644531 C 95.882812 328.304688 95.839844 330.75 96.414062 332.589844 C 96.582031 333.210938 96.867188 333.773438 97.273438 334.269531 C 98.25 335.390625 99.78125 335.5625 101.371094 335.425781 C 101.355469 381.050781 100.59375 426.777344 101.394531 472.40625 C 99.785156 472.222656 98.207031 472.34375 97.144531 473.425781 C 96.625 473.996094 96.277344 474.65625 96.089844 475.40625 C 95.566406 477.21875 95.605469 479.535156 95.558594 481.15625 C 94.539062 481.214844 93.53125 481.519531 92.878906 482.121094 C 91.199219 483.667969 92.082031 485.71875 91.828125 487.644531 C 89.128906 488.945312 88.441406 492.140625 88.582031 495.339844 C 88.734375 498.8125 90.339844 500.453125 92.847656 501.53125 C 93.828125 511.101562 98.65625 519.683594 106.261719 525.640625 C 114.699219 532.25 124.699219 537.394531 135.546875 537.9375 C 145.78125 538.457031 155.300781 535.390625 162.671875 528.335938 C 170.046875 521.277344 175.679688 512.273438 176.265625 501.949219 C 178.972656 500.996094 180.945312 499.589844 181.371094 496.226562 C 181.796875 492.867188 181.074219 489.15625 178.164062 487.726562 Z M 107.40625 284.988281 C 115.113281 278.570312 124.984375 273.394531 135.097656 272.753906 C 144.035156 272.191406 153.957031 274.429688 160.386719 280.980469 C 165.519531 286.203125 170.464844 292.914062 172.542969 300.1875 C 162.574219 297.691406 152.449219 296.65625 142.164062 296.746094 C 131.46875 296.839844 119.652344 296.289062 109.179688 298.613281 C 108.789062 298.699219 108.898438 299.292969 109.273438 299.300781 C 119.910156 299.535156 130.679688 298.476562 141.359375 298.523438 C 152.039062 298.570312 162.660156 299.488281 172.925781 302.445312 C 172.984375 302.460938 173.042969 302.472656 173.101562 302.476562 C 173.261719 303.296875 173.382812 304.121094 173.46875 304.953125 C 167.914062 303.597656 161.992188 303.589844 156.332031 303.429688 C 148.933594 303.230469 141.523438 303.234375 134.125 303.367188 C 134.007812 303.367188 133.890625 303.382812 133.773438 303.410156 C 127.539062 303.324219 121.300781 303.335938 115.066406 303.488281 C 108.941406 303.636719 102.46875 303.578125 96.5 305.167969 C 96.144531 305.261719 95.796875 305.355469 95.457031 305.445312 C 97.203125 297.554688 101.109375 290.234375 107.40625 284.988281 Z M 99.113281 331.417969 C 98.363281 330.476562 98.167969 327.964844 97.847656 326.429688 C 98.039062 326.378906 98.226562 326.308594 98.410156 326.226562 C 98.617188 326.132812 98.757812 325.980469 98.835938 325.765625 C 99.140625 325.621094 99.457031 325.496094 99.777344 325.386719 C 101.40625 324.855469 103.277344 324.214844 104.96875 324.035156 C 105.3125 324 105.328125 323.476562 104.96875 323.492188 C 103.035156 323.535156 101.226562 323.15625 99.265625 323.527344 C 98.671875 323.628906 98.089844 323.78125 97.523438 323.976562 C 97.296875 323.921875 97.074219 323.882812 96.84375 323.855469 C 96.382812 323.796875 95.546875 323.855469 95.230469 323.460938 C 94.914062 323.070312 95.09375 322.160156 95.136719 321.667969 C 95.175781 321.257812 95.183594 320.851562 95.171875 320.441406 C 95.96875 320.117188 96.761719 319.761719 97.566406 319.503906 C 99.367188 318.929688 101.15625 318.335938 102.941406 317.722656 C 103.320312 317.589844 103.285156 316.972656 102.84375 316.988281 C 100.511719 317.058594 98.214844 317.363281 95.945312 317.902344 C 95.355469 318.027344 94.773438 318.183594 94.203125 318.378906 C 94.042969 318.289062 93.867188 318.242188 93.683594 318.238281 C 93.097656 317.640625 92.632812 316.960938 92.296875 316.195312 C 91.957031 315.429688 91.769531 314.628906 91.722656 313.792969 C 96.730469 309.929688 103.300781 310.1875 109.332031 309.691406 C 114.714844 309.246094 120.078125 308.613281 125.460938 308.144531 C 125.847656 308.109375 125.855469 307.511719 125.460938 307.53125 C 118.460938 307.898438 111.480469 308.113281 104.496094 308.546875 C 100.257812 308.808594 95.921875 308.828125 92.304688 310.917969 C 92.585938 310.367188 92.972656 309.902344 93.457031 309.515625 C 94.707031 308.539062 97.171875 308.167969 98.777344 307.820312 C 102.972656 306.917969 107.363281 306.847656 111.652344 306.699219 C 119.90625 306.402344 128.167969 306.53125 136.417969 306.511719 C 136.582031 306.511719 136.738281 306.484375 136.894531 306.433594 C 144.226562 306.433594 151.558594 306.359375 158.890625 306.625 C 162.929688 306.769531 167.039062 306.867188 171.019531 307.617188 C 172.777344 307.949219 175.679688 308.355469 177.082031 309.453125 C 179.40625 311.265625 179.226562 314.929688 177.613281 317.289062 C 167.164062 313.371094 154.378906 313.480469 143.375 313.257812 C 131.457031 313.023438 119.339844 313.488281 107.671875 316.058594 C 107.59375 316.070312 107.53125 316.105469 107.484375 316.167969 C 107.4375 316.230469 107.417969 316.300781 107.429688 316.375 C 107.441406 316.453125 107.476562 316.515625 107.539062 316.5625 C 107.601562 316.609375 107.667969 316.628906 107.746094 316.617188 C 119.351562 315.996094 130.90625 314.976562 142.546875 315.179688 C 153.222656 315.363281 165.527344 315.265625 175.796875 318.820312 C 175.695312 318.960938 175.617188 319.113281 175.5625 319.28125 C 175.367188 320.050781 175.316406 320.828125 175.417969 321.617188 C 175.453125 322.082031 175.667969 323.019531 175.320312 323.414062 C 174.972656 323.808594 174.199219 323.742188 173.707031 323.808594 C 173.464844 323.832031 173.226562 323.878906 172.988281 323.9375 C 163.847656 320.746094 152.964844 321.363281 143.472656 321.308594 C 137.898438 321.273438 132.332031 321.394531 126.773438 321.753906 C 121.496094 322.097656 115.992188 321.941406 110.914062 323.558594 C 110.84375 323.585938 110.8125 323.636719 110.824219 323.714844 C 110.832031 323.789062 110.875 323.832031 110.953125 323.835938 C 115.914062 324.417969 120.960938 323.542969 125.9375 323.367188 C 131.222656 323.183594 136.515625 323.121094 141.800781 323.144531 C 151.226562 323.1875 162.613281 322.375 171.699219 325.664062 C 171.769531 325.902344 171.917969 326.074219 172.144531 326.175781 C 172.328125 326.253906 172.515625 326.320312 172.707031 326.375 C 172.394531 327.902344 172.179688 330.484375 171.4375 331.363281 C 170.003906 333.058594 168.140625 332.097656 166.203125 331.800781 C 162.820312 331.285156 159.429688 330.828125 156.023438 330.464844 C 148.386719 329.609375 140.722656 329.230469 133.039062 329.320312 C 132.882812 329.324219 132.734375 329.351562 132.589844 329.398438 C 126.558594 329.488281 120.523438 329.898438 114.53125 330.539062 C 111.128906 330.902344 107.742188 331.378906 104.355469 331.878906 C 102.425781 332.148438 100.570312 333.242188 99.113281 331.417969 Z M 150.859375 473.320312 C 150.957031 473.425781 151.070312 473.460938 151.210938 473.429688 C 151.347656 473.402344 151.4375 473.316406 151.480469 473.183594 C 151.511719 472.992188 151.539062 472.800781 151.570312 472.621094 L 152.96875 471.222656 C 153.042969 472.390625 153.152344 473.535156 153.308594 474.644531 C 151.945312 474.769531 150.582031 474.882812 149.21875 474.980469 Z M 155.289062 468.898438 C 157.980469 466.203125 160.675781 463.503906 163.367188 460.808594 L 163.382812 460.789062 C 163.433594 460.738281 163.480469 460.683594 163.519531 460.621094 C 163.546875 460.570312 163.574219 460.519531 163.59375 460.46875 C 163.613281 460.421875 163.628906 460.375 163.640625 460.328125 C 163.640625 460.3125 163.640625 460.300781 163.640625 460.285156 C 163.652344 460.21875 163.660156 460.15625 163.660156 460.085938 C 163.660156 460.085938 163.660156 460.066406 163.660156 460.054688 C 163.660156 451.675781 163.492188 443.300781 163.484375 434.921875 C 163.484375 433.941406 162.414062 433.652344 161.773438 434.046875 C 161.609375 434.105469 161.464844 434.199219 161.34375 434.324219 C 158.140625 437.539062 155.007812 440.847656 151.929688 444.207031 C 151.902344 441.734375 151.863281 439.257812 151.789062 436.785156 C 151.789062 436.605469 151.726562 436.453125 151.597656 436.328125 C 151.472656 436.199219 151.316406 436.136719 151.136719 436.136719 C 150.957031 436.136719 150.804688 436.199219 150.675781 436.328125 C 150.550781 436.453125 150.488281 436.605469 150.484375 436.785156 C 150.394531 439.847656 150.347656 442.90625 150.324219 445.96875 C 141.484375 455.664062 132.96875 465.648438 123.835938 475.078125 C 122.519531 475 121.210938 474.910156 119.898438 474.800781 C 115.140625 474.4375 110.410156 473.925781 105.675781 473.195312 C 105.394531 473.148438 105.101562 473.09375 104.792969 473.027344 C 105.097656 456.015625 105.183594 438.988281 105.167969 421.960938 C 105.144531 392.898438 104.832031 363.828125 104.832031 334.789062 C 105.234375 334.703125 105.613281 334.625 105.949219 334.574219 C 109.960938 333.953125 113.976562 333.488281 118 333.136719 L 107.402344 343.734375 C 107.3125 343.824219 107.242188 343.925781 107.1875 344.042969 C 106.953125 344.253906 106.84375 344.519531 106.863281 344.835938 L 106.863281 368.660156 C 106.859375 368.804688 106.886719 368.945312 106.941406 369.078125 C 106.996094 369.210938 107.074219 369.328125 107.179688 369.425781 C 107.28125 369.527344 107.402344 369.601562 107.535156 369.648438 C 107.671875 369.699219 107.8125 369.71875 107.953125 369.710938 C 108.34375 369.824219 108.675781 369.730469 108.949219 369.433594 L 112.179688 366.195312 C 112.089844 373.539062 111.78125 380.992188 112.425781 388.289062 C 110.804688 389.984375 109.171875 391.664062 107.527344 393.324219 C 107.4375 393.414062 107.367188 393.515625 107.3125 393.632812 C 107.074219 393.839844 106.960938 394.097656 106.972656 394.414062 L 106.972656 418.246094 C 106.972656 418.386719 106.996094 418.527344 107.050781 418.660156 C 107.105469 418.792969 107.183594 418.90625 107.289062 419.007812 C 107.390625 419.105469 107.511719 419.179688 107.644531 419.230469 C 107.78125 419.28125 107.921875 419.300781 108.0625 419.292969 C 108.453125 419.402344 108.785156 419.3125 109.058594 419.011719 C 122.15625 405.875 134.503906 392.011719 147.167969 378.460938 C 147.09375 385.382812 146.867188 392.371094 147.1875 399.28125 C 140.359375 406.777344 133.683594 414.414062 126.917969 421.957031 C 123.832031 425.40625 120.71875 428.828125 117.582031 432.230469 C 117.542969 430.632812 117.507812 429.039062 117.476562 427.445312 C 117.46875 427.332031 117.421875 427.238281 117.339844 427.160156 C 117.257812 427.085938 117.15625 427.046875 117.042969 427.046875 C 116.933594 427.046875 116.832031 427.085938 116.75 427.160156 C 116.667969 427.238281 116.621094 427.332031 116.613281 427.445312 C 116.578125 429.429688 116.53125 431.417969 116.476562 433.410156 C 113.53125 436.566406 110.539062 439.6875 107.507812 442.765625 C 107.417969 442.855469 107.347656 442.957031 107.292969 443.066406 C 107.058594 443.277344 106.945312 443.539062 106.953125 443.855469 L 106.953125 467.683594 C 106.953125 467.824219 106.976562 467.964844 107.03125 468.097656 C 107.085938 468.230469 107.167969 468.34375 107.269531 468.445312 C 107.375 468.542969 107.492188 468.617188 107.625 468.667969 C 107.761719 468.71875 107.902344 468.738281 108.042969 468.730469 C 108.433594 468.84375 108.769531 468.75 109.042969 468.453125 C 110.164062 467.332031 111.269531 466.210938 112.359375 465.09375 C 112.429688 467.554688 112.640625 470 112.988281 472.4375 C 113.042969 472.625 113.171875 472.71875 113.367188 472.71875 C 113.5625 472.71875 113.6875 472.625 113.742188 472.4375 C 114.1875 469.304688 114.414062 466.15625 114.421875 462.992188 C 114.945312 462.453125 115.472656 461.914062 115.996094 461.367188 C 116.027344 464.132812 116.097656 466.894531 116.222656 469.648438 C 116.253906 469.855469 116.347656 470.027344 116.503906 470.164062 C 116.660156 470.300781 116.84375 470.371094 117.054688 470.371094 C 117.261719 470.371094 117.445312 470.300781 117.605469 470.164062 C 117.761719 470.027344 117.855469 469.855469 117.886719 469.648438 C 118.046875 466.152344 118.117188 462.652344 118.128906 459.136719 C 118.726562 458.515625 119.316406 457.882812 119.910156 457.257812 C 128.46875 448.226562 136.832031 439.011719 145.3125 429.902344 C 147.789062 427.25 150.273438 424.605469 152.765625 421.972656 C 156.007812 418.566406 159.273438 415.183594 162.59375 411.855469 C 162.816406 411.390625 163.011719 410.917969 163.179688 410.433594 C 163.179688 402.054688 163.015625 393.679688 163.003906 385.304688 C 162.996094 385.09375 162.933594 384.898438 162.8125 384.726562 C 162.695312 384.550781 162.539062 384.421875 162.347656 384.335938 C 162.152344 384.25 161.953125 384.222656 161.746094 384.253906 C 161.535156 384.285156 161.351562 384.367188 161.191406 384.503906 L 161.160156 384.527344 C 157.910156 387.804688 154.722656 391.136719 151.589844 394.523438 C 151.472656 392.308594 151.351562 390.113281 151.242188 387.964844 C 151.242188 387.875 151.210938 387.796875 151.144531 387.730469 C 151.082031 387.667969 151.003906 387.636719 150.910156 387.636719 C 150.820312 387.636719 150.742188 387.667969 150.675781 387.730469 C 150.613281 387.796875 150.582031 387.875 150.582031 387.964844 C 150.449219 390.617188 150.300781 393.328125 150.15625 396.070312 L 148.800781 397.542969 C 149.03125 390.648438 148.785156 383.683594 148.738281 376.800781 C 153.300781 371.941406 157.910156 367.121094 162.621094 362.398438 C 162.84375 361.9375 163.039062 361.464844 163.207031 360.980469 C 163.207031 352.601562 163.042969 344.226562 163.03125 335.847656 C 163.039062 335.636719 162.984375 335.4375 162.863281 335.261719 C 162.746094 335.082031 162.585938 334.957031 162.382812 334.882812 C 162.191406 334.777344 161.988281 334.742188 161.773438 334.773438 C 161.558594 334.800781 161.371094 334.894531 161.21875 335.046875 L 161.1875 335.074219 C 156.851562 339.449219 152.628906 343.9375 148.46875 348.480469 C 148.4375 347.65625 148.40625 346.835938 148.367188 346.011719 C 148.359375 345.910156 148.316406 345.828125 148.242188 345.757812 C 148.167969 345.6875 148.078125 345.65625 147.976562 345.65625 C 147.875 345.65625 147.785156 345.6875 147.710938 345.757812 C 147.636719 345.828125 147.59375 345.910156 147.585938 346.011719 C 147.53125 347.207031 147.480469 348.402344 147.441406 349.601562 C 136.191406 361.910156 125.378906 374.617188 113.9375 386.703125 C 114.453125 379.292969 114.082031 371.746094 114.035156 364.335938 L 115.378906 362.992188 C 115.113281 367.859375 115.097656 372.847656 115.984375 377.269531 C 116.03125 377.429688 116.140625 377.507812 116.304688 377.507812 C 116.46875 377.507812 116.574219 377.429688 116.625 377.269531 C 117.613281 372.320312 117.480469 366.660156 117.125 361.25 C 126.675781 351.695312 136.222656 342.144531 145.773438 332.589844 C 152.0625 332.949219 158.332031 333.542969 164.589844 334.507812 C 164.925781 334.5625 165.292969 334.632812 165.679688 334.71875 C 165.679688 363.785156 165.363281 392.882812 165.339844 421.972656 C 165.339844 424.617188 165.339844 427.261719 165.339844 429.902344 C 165.355469 444.277344 165.449219 458.644531 165.703125 473.011719 C 165.191406 473.121094 164.71875 473.222656 164.300781 473.292969 C 161.152344 473.777344 158.003906 474.160156 154.851562 474.476562 C 155.109375 472.625 155.253906 470.765625 155.289062 468.898438 Z M 142.996094 332.589844 C 143.273438 332.3125 143.574219 332.015625 143.859375 331.730469 L 143.765625 331.730469 C 144.003906 331.542969 144.183594 331.402344 144.167969 331.417969 L 143.859375 331.722656 C 143.578125 332.003906 143.300781 332.300781 142.996094 332.585938 Z M 129.816406 421.972656 C 127.472656 424.59375 125.117188 427.207031 122.75 429.8125 C 125.121094 427.214844 127.476562 424.601562 129.816406 421.972656 Z M 120.605469 453.324219 C 120.367188 453.578125 120.128906 453.835938 119.890625 454.089844 C 119.292969 454.722656 118.703125 455.355469 118.105469 455.984375 C 118.945312 455.125 119.777344 454.222656 120.613281 453.335938 Z M 120.308594 432.457031 C 121.054688 431.640625 121.804688 430.824219 122.5625 430 C 121.816406 430.828125 121.070312 431.652344 120.3125 432.46875 Z M 141.683594 430.582031 C 138.058594 434.5 134.4375 438.417969 130.824219 442.335938 C 134.445312 438.425781 138.066406 434.511719 141.691406 430.59375 Z M 126.144531 447.394531 L 125.308594 448.3125 Z M 149.746094 421.960938 Z M 145.574219 426.40625 L 142.878906 429.292969 C 143.78125 428.335938 144.679688 427.378906 145.578125 426.414062 Z M 172.863281 505.285156 C 172.789062 505.292969 172.714844 505.308594 172.640625 505.328125 C 162.375 508.289062 151.726562 509.207031 141.074219 509.246094 C 130.421875 509.285156 119.628906 508.238281 108.988281 508.476562 C 108.792969 508.484375 108.679688 508.582031 108.652344 508.777344 C 108.628906 508.972656 108.707031 509.097656 108.894531 509.15625 C 119.367188 511.480469 131.191406 510.933594 141.882812 511.023438 C 152.199219 511.117188 162.355469 510.074219 172.359375 507.558594 C 170.472656 514.738281 165.945312 521.070312 160.578125 526.21875 C 153.617188 532.902344 144.457031 535.675781 134.828125 535.019531 C 116.59375 533.78125 99.292969 520.160156 95.199219 502.3125 C 95.535156 502.40625 95.875 502.5 96.230469 502.589844 C 101.949219 504.089844 108.078125 504.089844 113.945312 504.25 C 120.457031 504.429688 126.984375 504.441406 133.503906 504.355469 C 133.617188 504.378906 133.738281 504.390625 133.855469 504.394531 C 140.96875 504.519531 148.09375 504.523438 155.210938 504.347656 C 161.140625 504.203125 167.394531 504.253906 173.203125 502.808594 C 173.125 503.65625 173.015625 504.484375 172.867188 505.296875 Z M 176.800781 498.332031 C 175.550781 499.3125 173.085938 499.683594 171.484375 500.03125 C 167.285156 500.929688 162.894531 501.007812 158.605469 501.148438 C 151.273438 501.429688 143.945312 501.34375 136.605469 501.339844 C 136.453125 501.289062 136.296875 501.265625 136.136719 501.265625 C 127.875 501.246094 119.621094 501.375 111.367188 501.074219 C 107.328125 500.929688 103.222656 500.832031 99.242188 500.078125 C 97.480469 499.746094 94.578125 499.34375 93.175781 498.246094 C 92.6875 497.863281 92.304688 497.398438 92.023438 496.847656 C 95.636719 498.941406 99.980469 498.957031 104.210938 499.21875 C 111.210938 499.652344 118.1875 499.867188 125.179688 500.234375 C 125.574219 500.257812 125.5625 499.65625 125.179688 499.625 C 119.796875 499.152344 114.433594 498.523438 109.050781 498.074219 C 103.007812 497.578125 96.453125 497.847656 91.441406 493.976562 C 91.484375 493.140625 91.675781 492.339844 92.011719 491.570312 C 92.351562 490.804688 92.8125 490.125 93.402344 489.53125 C 93.585938 489.523438 93.761719 489.476562 93.925781 489.386719 C 94.496094 489.589844 95.074219 489.757812 95.664062 489.890625 C 97.933594 490.429688 100.230469 490.734375 102.558594 490.804688 C 103 490.820312 103.042969 490.203125 102.660156 490.070312 C 100.875 489.453125 99.089844 488.863281 97.285156 488.285156 C 96.484375 488.027344 95.683594 487.671875 94.886719 487.351562 C 94.902344 486.941406 94.890625 486.53125 94.855469 486.121094 C 94.816406 485.660156 94.605469 484.722656 94.953125 484.332031 C 95.300781 483.941406 96.070312 484 96.5625 483.9375 C 96.792969 483.910156 97.023438 483.867188 97.246094 483.8125 C 97.8125 484.011719 98.394531 484.160156 98.984375 484.265625 C 100.945312 484.640625 102.753906 484.265625 104.691406 484.296875 C 105.046875 484.296875 105.027344 483.792969 104.691406 483.753906 C 102.992188 483.578125 101.125 482.933594 99.496094 482.40625 C 99.175781 482.296875 98.863281 482.171875 98.554688 482.027344 C 98.476562 481.8125 98.335938 481.65625 98.125 481.5625 C 97.945312 481.480469 97.757812 481.414062 97.566406 481.363281 C 97.878906 479.835938 98.09375 477.25 98.835938 476.375 C 100.269531 474.695312 102.132812 475.640625 104.070312 475.9375 C 107.453125 476.453125 110.84375 476.910156 114.246094 477.273438 C 116.125 477.476562 118.007812 477.652344 119.894531 477.804688 C 124.023438 478.140625 128.160156 478.363281 132.300781 478.414062 C 132.445312 478.464844 132.597656 478.488281 132.75 478.492188 C 140.4375 478.582031 148.101562 478.203125 155.738281 477.351562 C 159.144531 476.988281 162.53125 476.523438 165.914062 476.011719 C 166.34375 475.949219 166.753906 475.84375 167.179688 475.730469 C 167.609375 475.789062 168.011719 475.699219 168.378906 475.472656 C 169.390625 475.3125 170.335938 475.414062 171.152344 476.441406 C 171.265625 476.589844 171.355469 476.746094 171.433594 476.914062 C 171.957031 478.054688 172.144531 480.105469 172.421875 481.429688 C 172.230469 481.484375 172.042969 481.550781 171.859375 481.632812 C 171.632812 481.734375 171.484375 481.90625 171.414062 482.140625 C 162.324219 485.433594 150.945312 484.621094 141.515625 484.660156 C 136.507812 484.683594 131.496094 484.59375 126.492188 484.453125 C 121.246094 484.308594 115.890625 483.355469 110.667969 483.96875 C 110.59375 483.976562 110.550781 484.015625 110.539062 484.09375 C 110.53125 484.167969 110.558594 484.21875 110.628906 484.246094 C 115.457031 485.78125 120.636719 485.671875 125.65625 485.988281 C 131.5 486.363281 137.34375 486.53125 143.183594 486.496094 C 152.683594 486.4375 163.5625 487.054688 172.707031 483.863281 C 172.941406 483.925781 173.183594 483.96875 173.425781 484 C 173.886719 484.058594 174.71875 484 175.039062 484.390625 C 175.355469 484.78125 175.175781 485.6875 175.132812 486.183594 C 175.03125 486.972656 175.078125 487.753906 175.277344 488.523438 C 175.332031 488.6875 175.410156 488.84375 175.511719 488.984375 C 165.246094 492.535156 152.941406 492.429688 142.261719 492.621094 C 130.625 492.828125 119.066406 491.8125 107.464844 491.183594 C 107.386719 491.171875 107.316406 491.191406 107.253906 491.238281 C 107.195312 491.285156 107.15625 491.347656 107.148438 491.425781 C 107.136719 491.503906 107.15625 491.574219 107.203125 491.636719 C 107.25 491.695312 107.3125 491.734375 107.390625 491.742188 C 119.058594 494.300781 131.183594 494.765625 143.09375 494.542969 C 154.089844 494.320312 166.886719 494.429688 177.332031 490.511719 C 178.949219 492.867188 179.132812 496.53125 176.808594 498.34375 Z M 176.800781 498.332031 " fill-opacity="1" fill-rule="nonzero"/></g><path fill="#ffffff" d="M 154.339844 524.546875 C 149.203125 527.1875 143.921875 529.433594 138.730469 531.941406 C 138.15625 532.21875 138.40625 533.277344 139.066406 533.1875 C 145.695312 532.320312 152.84375 528.910156 158.59375 525.542969 C 162.941406 522.996094 168.089844 518.160156 167.992188 512.746094 C 167.972656 511.605469 166.5625 511.347656 165.953125 512.1875 C 164.429688 514.347656 163.691406 516.839844 161.992188 518.925781 C 159.902344 521.503906 157.25 523.058594 154.339844 524.546875 Z M 154.339844 524.546875 " fill-opacity="1" fill-rule="nonzero"/><path fill="#ffffff" d="M 151.445312 520.539062 C 151.210938 520.789062 151.164062 521.070312 151.292969 521.386719 C 151.425781 521.703125 151.664062 521.863281 152.003906 521.871094 C 154.386719 522.042969 157.003906 520.558594 158.894531 519.25 C 160.785156 517.9375 162.148438 516.417969 163.03125 514.25 C 163.414062 513.308594 161.96875 512.511719 161.328125 513.257812 C 159.976562 514.859375 158.40625 516.203125 156.617188 517.289062 C 154.910156 518.300781 152.746094 519.003906 151.445312 520.539062 Z M 151.445312 520.539062 " fill-opacity="1" fill-rule="nonzero"/><path fill="#ffffff" d="M 151.105469 516.289062 C 151.027344 516.417969 151.011719 516.558594 151.046875 516.707031 C 151.085938 516.851562 151.171875 516.964844 151.300781 517.042969 C 153.375 518.070312 156.058594 515.875 157.457031 514.523438 C 158.121094 513.886719 157.28125 512.878906 156.5 513.285156 C 155.511719 513.804688 154.480469 514.253906 153.453125 514.699219 C 152.609375 515.074219 151.601562 515.460938 151.105469 516.289062 Z M 151.105469 516.289062 " fill-opacity="1" fill-rule="nonzero"/><path fill="#ffffff" d="M 146.707031 504.628906 C 146.722656 504.628906 146.730469 504.621094 146.730469 504.605469 C 146.730469 504.589844 146.722656 504.582031 146.707031 504.582031 C 146.691406 504.582031 146.683594 504.589844 146.683594 504.605469 C 146.683594 504.621094 146.691406 504.628906 146.707031 504.628906 Z M 146.707031 504.628906 " fill-opacity="1" fill-rule="nonzero"/><path fill="#ffffff" d="M 176.074219 493.261719 C 174.050781 497.828125 167.046875 496.871094 162.75 497.253906 C 158.304688 497.644531 153.761719 497.972656 149.390625 498.875 C 148.949219 498.964844 149.082031 499.59375 149.492188 499.625 C 152.953125 499.855469 181.5 501.304688 177.292969 493.261719 C 177.0625 492.824219 176.285156 492.78125 176.074219 493.261719 Z M 176.074219 493.261719 " fill-opacity="1" fill-rule="nonzero"/><path fill="#ffffff" d="M 156.425781 496.109375 C 161.613281 496.601562 169.621094 497.105469 174.0625 493.835938 C 174.570312 493.464844 174.296875 492.511719 173.597656 492.738281 C 170.535156 493.722656 167.789062 494.496094 164.539062 494.726562 C 161.792969 494.921875 159.039062 494.945312 156.320312 495.410156 C 155.90625 495.484375 156.054688 496.078125 156.425781 496.109375 Z M 156.425781 496.109375 " fill-opacity="1" fill-rule="nonzero"/><path fill="#ffffff" d="M 150.164062 490.972656 C 155.238281 492.175781 161.269531 491.203125 166.398438 490.542969 C 169.027344 490.207031 173.117188 490.117188 173.925781 487.03125 C 174.046875 486.621094 173.953125 486.261719 173.648438 485.960938 L 173.085938 485.496094 C 172.597656 485.089844 171.6875 485.3125 171.726562 486.054688 C 171.949219 490.125 153.054688 489.414062 150.171875 490.039062 C 149.9375 490.105469 149.820312 490.261719 149.816406 490.503906 C 149.816406 490.746094 149.929688 490.902344 150.164062 490.972656 Z M 150.164062 490.972656 " fill-opacity="1" fill-rule="nonzero"/><path fill="#ffffff" d="M 154.835938 488.28125 C 157.671875 488.429688 160.507812 488.402344 163.34375 488.203125 C 165.472656 488.050781 167.992188 488.019531 169.738281 486.699219 C 169.894531 486.601562 169.949219 486.460938 169.902344 486.28125 C 169.851562 486.101562 169.738281 486.007812 169.550781 486.003906 C 166.976562 485.921875 164.363281 486.644531 161.746094 486.707031 C 159.339844 486.761719 157.035156 486.75 154.730469 487.496094 C 154.636719 487.527344 154.5625 487.582031 154.507812 487.664062 C 154.453125 487.746094 154.433594 487.835938 154.445312 487.933594 C 154.460938 488.03125 154.503906 488.113281 154.578125 488.179688 C 154.652344 488.246094 154.738281 488.277344 154.835938 488.28125 Z M 154.835938 488.28125 " fill-opacity="1" fill-rule="nonzero"/><path fill="#ffffff" d="M 148.59375 483.257812 C 148.34375 483.34375 148.28125 483.78125 148.59375 483.820312 C 151.511719 484.277344 175.230469 485.191406 170.90625 478.035156 C 170.523438 477.402344 169.605469 477.832031 169.746094 478.527344 C 170.519531 482.402344 160.144531 481.679688 158.140625 481.828125 C 154.929688 482.074219 151.648438 482.222656 148.59375 483.257812 Z M 148.59375 483.257812 " fill-opacity="1" fill-rule="nonzero"/><path fill="#ffffff" d="M 150.703125 480.160156 C 153.558594 480.605469 156.351562 480.359375 159.226562 480.199219 C 162.050781 480.039062 165.207031 480.226562 167.84375 479.132812 C 168.308594 478.941406 168.4375 478.195312 167.84375 478.054688 C 165.070312 477.386719 162.039062 478.054688 159.226562 478.332031 C 156.320312 478.632812 153.492188 478.8125 150.703125 479.730469 C 150.515625 479.796875 150.46875 480.125 150.703125 480.160156 Z M 150.703125 480.160156 " fill-opacity="1" fill-rule="nonzero"/><path fill="#ffffff" d="M 129.128906 512.289062 C 133.015625 513.410156 137.25 513.328125 141.257812 513.355469 C 145.339844 513.386719 149.476562 513.546875 153.503906 512.761719 C 154.128906 512.636719 153.972656 511.65625 153.355469 511.660156 C 149.308594 511.683594 145.308594 512.332031 141.257812 512.347656 C 137.207031 512.359375 133.167969 511.757812 129.160156 512.066406 C 129.101562 512.074219 129.070312 512.109375 129.0625 512.167969 C 129.054688 512.226562 129.078125 512.265625 129.128906 512.289062 Z M 129.128906 512.289062 " fill-opacity="1" fill-rule="nonzero"/><path fill="#ffffff" d="M 124.132812 479.648438 C 116.527344 478.832031 108.9375 477.8125 101.324219 477.019531 C 100.886719 476.976562 100.796875 477.691406 101.222656 477.785156 C 108.753906 479.496094 116.417969 480.148438 124.132812 480.171875 C 124.476562 480.175781 124.464844 479.683594 124.132812 479.648438 Z M 124.132812 479.648438 " fill-opacity="1" fill-rule="nonzero"/><path fill="#ffffff" d="M 130.9375 480.117188 C 136.644531 480.765625 142.742188 481.519531 148.46875 480.679688 C 149.027344 480.589844 148.863281 479.734375 148.335938 479.710938 C 142.539062 479.445312 136.75 479.953125 130.9375 479.449219 C 130.503906 479.402344 130.515625 480.070312 130.9375 480.117188 Z M 130.9375 480.117188 " fill-opacity="1" fill-rule="nonzero"/><path fill="#ffffff" d="M 145.03125 482.785156 C 143.242188 482.113281 140.785156 482.675781 138.933594 482.855469 C 138.859375 482.855469 138.824219 482.894531 138.824219 482.964844 C 138.824219 483.039062 138.859375 483.074219 138.933594 483.074219 C 140.789062 483.253906 143.246094 483.820312 145.03125 483.144531 C 145.121094 483.117188 145.164062 483.058594 145.164062 482.964844 C 145.164062 482.875 145.121094 482.8125 145.03125 482.785156 Z M 145.03125 482.785156 " fill-opacity="1" fill-rule="nonzero"/><path fill="#ffffff" d="M 139.304688 491.199219 C 142.175781 491.328125 145.210938 492.101562 148.039062 491.277344 C 148.117188 491.277344 148.183594 491.25 148.238281 491.195312 C 148.292969 491.140625 148.320312 491.074219 148.320312 490.996094 C 148.320312 490.917969 148.292969 490.851562 148.238281 490.796875 C 148.183594 490.742188 148.117188 490.714844 148.039062 490.714844 C 145.203125 489.902344 142.160156 490.6875 139.304688 490.824219 C 139.183594 490.828125 139.121094 490.890625 139.121094 491.011719 C 139.121094 491.136719 139.183594 491.199219 139.304688 491.199219 Z M 139.304688 491.199219 " fill-opacity="1" fill-rule="nonzero"/><path fill="#ffffff" d="M 147.378906 498.707031 C 144.507812 498.296875 141.242188 499.269531 138.375 499.449219 C 138.046875 499.46875 138.042969 499.964844 138.375 499.957031 C 141.328125 499.882812 144.613281 500.535156 147.53125 500 C 147.765625 499.933594 147.882812 499.777344 147.886719 499.53125 C 147.886719 499.476562 147.886719 499.421875 147.886719 499.367188 C 147.882812 499.214844 147.835938 499.078125 147.742188 498.953125 C 147.648438 498.832031 147.527344 498.75 147.378906 498.707031 Z M 147.378906 498.707031 " fill-opacity="1" fill-rule="nonzero"/><g fill="#ffffff" fill-opacity="1"><g transform="translate(296.074101, 474.641504)"><g><path d="M 65.046875 -145.125 C 70.265625 -145.125 75.171875 -144.609375 79.765625 -143.578125 C 84.359375 -142.546875 88.367188 -140.796875 91.796875 -138.328125 C 95.234375 -135.859375 97.945312 -132.53125 99.9375 -128.34375 C 101.925781 -124.15625 102.921875 -118.972656 102.921875 -112.796875 C 102.921875 -108.816406 102.40625 -105.039062 101.375 -101.46875 C 100.34375 -97.90625 98.734375 -94.820312 96.546875 -92.21875 C 94.210938 -89.332031 91.257812 -86.960938 87.6875 -85.109375 C 84.125 -83.265625 80.144531 -82.066406 75.75 -81.515625 C 81.375 -81.378906 86.722656 -80.453125 91.796875 -78.734375 C 96.878906 -77.015625 101.34375 -74.539062 105.1875 -71.3125 C 109.03125 -68.09375 112.046875 -64.082031 114.234375 -59.28125 C 116.429688 -54.476562 117.53125 -48.851562 117.53125 -42.40625 C 117.53125 -33.757812 115.953125 -26.691406 112.796875 -21.203125 C 109.640625 -15.710938 105.421875 -11.390625 100.140625 -8.234375 C 94.859375 -5.078125 88.75 -2.914062 81.8125 -1.75 C 74.882812 -0.582031 67.648438 0 60.109375 0 L 8.234375 0 L 8.234375 -1.640625 C 11.390625 -4.796875 13.445312 -7.742188 14.40625 -10.484375 C 15.363281 -13.234375 15.84375 -16.804688 15.84375 -21.203125 L 15.84375 -123.921875 C 15.84375 -128.304688 15.363281 -131.867188 14.40625 -134.609375 C 13.445312 -137.359375 11.390625 -140.3125 8.234375 -143.46875 L 8.234375 -145.125 Z M 36.4375 -84.1875 L 55.78125 -84.1875 C 59.351562 -84.1875 62.851562 -84.835938 66.28125 -86.140625 C 69.707031 -87.441406 72.757812 -89.328125 75.4375 -91.796875 C 78.113281 -94.273438 80.238281 -97.332031 81.8125 -100.96875 C 83.394531 -104.601562 84.117188 -108.753906 83.984375 -113.421875 C 83.847656 -117.804688 82.882812 -121.78125 81.09375 -125.34375 C 79.3125 -128.914062 77.015625 -131.9375 74.203125 -134.40625 C 71.390625 -136.882812 68.164062 -138.773438 64.53125 -140.078125 C 60.894531 -141.378906 57.222656 -142.03125 53.515625 -142.03125 L 36.4375 -142.03125 Z M 60.109375 -3.09375 C 65.316406 -3.09375 70.082031 -4.015625 74.40625 -5.859375 C 78.726562 -7.710938 82.46875 -10.21875 85.625 -13.375 C 88.78125 -16.53125 91.21875 -20.203125 92.9375 -24.390625 C 94.65625 -28.578125 95.515625 -32.9375 95.515625 -37.46875 C 95.515625 -44.738281 94.414062 -51.082031 92.21875 -56.5 C 90.019531 -61.925781 87.101562 -66.421875 83.46875 -69.984375 C 79.832031 -73.554688 75.644531 -76.234375 70.90625 -78.015625 C 66.175781 -79.796875 61.273438 -80.6875 56.203125 -80.6875 L 36.4375 -80.6875 L 36.4375 -3.09375 Z M 60.109375 -3.09375 "/></g></g></g><g fill="#ffffff" fill-opacity="1"><g transform="translate(429.638528, 474.641504)"><g><path d="M 69.78125 -145.125 C 78.832031 -145.125 86.890625 -143.375 93.953125 -139.875 C 101.023438 -136.375 107 -131.429688 111.875 -125.046875 C 116.75 -118.671875 120.421875 -111.019531 122.890625 -102.09375 C 125.359375 -93.175781 126.59375 -83.296875 126.59375 -72.453125 C 126.59375 -61.617188 125.285156 -51.738281 122.671875 -42.8125 C 120.066406 -33.894531 116.296875 -26.28125 111.359375 -19.96875 C 106.421875 -13.65625 100.382812 -8.75 93.25 -5.25 C 86.113281 -1.75 78.015625 0 68.953125 0 L 8.234375 0 L 8.234375 -1.640625 C 11.390625 -4.796875 13.445312 -7.742188 14.40625 -10.484375 C 15.363281 -13.234375 15.84375 -16.804688 15.84375 -21.203125 L 15.84375 -123.921875 C 15.84375 -128.304688 15.363281 -131.867188 14.40625 -134.609375 C 13.445312 -137.359375 11.390625 -140.3125 8.234375 -143.46875 L 8.234375 -145.125 Z M 36.4375 -142.03125 L 36.4375 -3.09375 L 59.28125 -3.09375 C 65.457031 -3.09375 71.320312 -4.804688 76.875 -8.234375 C 82.4375 -11.660156 87.3125 -16.425781 91.5 -22.53125 C 95.6875 -28.644531 99.015625 -35.953125 101.484375 -44.453125 C 103.953125 -52.960938 105.1875 -62.296875 105.1875 -72.453125 C 105.1875 -82.609375 103.914062 -91.941406 101.375 -100.453125 C 98.832031 -108.960938 95.332031 -116.300781 90.875 -122.46875 C 86.414062 -128.644531 81.269531 -133.445312 75.4375 -136.875 C 69.601562 -140.3125 63.394531 -142.03125 56.8125 -142.03125 Z M 36.4375 -142.03125 "/></g></g></g><g fill="#ffffff" fill-opacity="1"><g transform="translate(570.20001, 474.641504)"><g><path d="M 59.078125 -145.125 C 66.210938 -145.125 72.832031 -144.4375 78.9375 -143.0625 C 85.039062 -141.6875 90.359375 -139.351562 94.890625 -136.0625 C 99.421875 -132.769531 102.988281 -128.410156 105.59375 -122.984375 C 108.207031 -117.566406 109.515625 -110.878906 109.515625 -102.921875 C 109.515625 -96.472656 108.65625 -90.914062 106.9375 -86.25 C 105.21875 -81.582031 102.8125 -77.703125 99.71875 -74.609375 C 96.632812 -71.523438 92.929688 -69.125 88.609375 -67.40625 C 84.285156 -65.695312 79.519531 -64.5 74.3125 -63.8125 C 78.019531 -62.851562 81.109375 -61.238281 83.578125 -58.96875 C 86.046875 -56.707031 88.132812 -54.03125 89.84375 -50.9375 C 91.5625 -47.851562 93.003906 -44.457031 94.171875 -40.75 C 95.335938 -37.050781 96.398438 -33.210938 97.359375 -29.234375 C 98.734375 -23.609375 100.757812 -19.007812 103.4375 -15.4375 C 106.113281 -11.875 109.234375 -10.09375 112.796875 -10.09375 C 113.484375 -10.09375 114.238281 -10.09375 115.0625 -10.09375 C 115.882812 -10.09375 116.742188 -10.296875 117.640625 -10.703125 C 118.535156 -11.117188 119.492188 -11.804688 120.515625 -12.765625 C 121.546875 -13.722656 122.613281 -15.234375 123.71875 -17.296875 L 125.5625 -16.671875 C 124.332031 -12.960938 122.582031 -9.90625 120.3125 -7.5 C 118.050781 -5.101562 115.582031 -3.285156 112.90625 -2.046875 C 110.226562 -0.816406 107.515625 -0.0664062 104.765625 0.203125 C 102.023438 0.484375 99.488281 0.414062 97.15625 0 C 93.726562 -0.6875 90.847656 -1.988281 88.515625 -3.90625 C 86.179688 -5.832031 84.191406 -8.234375 82.546875 -11.109375 C 80.898438 -13.992188 79.492188 -17.253906 78.328125 -20.890625 C 77.160156 -24.523438 75.957031 -28.265625 74.71875 -32.109375 C 73.757812 -35.128906 72.800781 -38.179688 71.84375 -41.265625 C 70.882812 -44.359375 69.71875 -47.3125 68.34375 -50.125 C 66.96875 -52.9375 65.316406 -55.472656 63.390625 -57.734375 C 61.472656 -60.003906 59.078125 -61.753906 56.203125 -62.984375 L 36.84375 -63.1875 L 36.4375 -21.203125 C 36.4375 -19.003906 36.570312 -17.046875 36.84375 -15.328125 C 37.113281 -13.617188 37.554688 -12.007812 38.171875 -10.5 C 38.796875 -8.988281 39.625 -7.507812 40.65625 -6.0625 C 41.6875 -4.625 42.957031 -3.148438 44.46875 -1.640625 L 44.46875 0 L 8.234375 0 L 8.234375 -1.640625 C 11.390625 -4.796875 13.484375 -7.742188 14.515625 -10.484375 C 15.546875 -13.234375 16.0625 -16.804688 16.0625 -21.203125 L 16.0625 -126.59375 C 16.0625 -129.75 15.546875 -132.5625 14.515625 -135.03125 C 13.484375 -137.5 11.390625 -140.3125 8.234375 -143.46875 L 8.234375 -145.125 Z M 36.84375 -66.28125 L 55.171875 -66.28125 C 59.691406 -66.28125 63.90625 -67.101562 67.8125 -68.75 C 71.726562 -70.394531 75.160156 -72.757812 78.109375 -75.84375 C 81.066406 -78.9375 83.398438 -82.644531 85.109375 -86.96875 C 86.828125 -91.289062 87.6875 -96.128906 87.6875 -101.484375 C 87.6875 -107.929688 86.722656 -113.660156 84.796875 -118.671875 C 82.878906 -123.679688 80.34375 -127.898438 77.1875 -131.328125 C 74.03125 -134.753906 70.320312 -137.328125 66.0625 -139.046875 C 61.8125 -140.765625 57.285156 -141.625 52.484375 -141.625 L 36.640625 -141.421875 Z M 36.84375 -66.28125 "/></g></g></g><path stroke-linecap="butt" transform="matrix(0, 3.170676, -3.170676, 0, 248.897482, 237.300946)" fill="none" stroke-linejoin="miter" d="M -0.0000521061 1.500266 L 105.787462 1.500266 " stroke="#ffffff" stroke-width="3" stroke-opacity="1" stroke-miterlimit="4"/></svg>